#!OML:ASF F:\VICON\USERDATA\INSTALL\rory3\rory3.ASF
:FULLY-SPECIFIED
:DEGREES
416
root 11.4817 17.8448 13.0987 222.426 86.4205 224.42
lowerback 10.1832 2.5819 2.03379
upperback -0.490465 3.65872 -0.61625
thorax -6.05763 1.72807 -2.34225
lowerneck -19.8887 -5.82032 -11.402
upperneck 30.1953 -6.01433 6.38706
head 14.2698 -2.84169 3.4932
rclavicle 4.30866e-014 -1.23246e-014
rhumerus -29.4085 -12.4483 -82.6244
rradius 36.172
rwrist 1.5521
rhand -17.632 11.4648
rfingers 7.12502
rthumb 8.62551 -18.339
lclavicle 4.30866e-014 -1.23246e-014
lhumerus -37.5464 9.59488 78.8092
lradius 24.7441
lwrist -12.7878
lhand -16.3237 27.6598
lfingers 7.12502
lthumb 9.88786 57.4076
rfemur 10.8415 1.42542 26.7517
rtibia 36.4341
rfoot 2.02519 -4.05684
rtoes -1.07453
lfemur -18.2905 -2.2978 -18.9946
ltibia 22.5904
lfoot -0.201705 -8.18124
ltoes 1.7064
417
root 11.6402 17.8653 13.0654 222.418 86.5377 224.591
lowerback 10.216 2.58425 2.11124
upperback -0.375461 3.6725 -0.609216
thorax -5.94969 1.73636 -2.37789
lowerneck -19.982 -5.77031 -11.3094
upperneck 30.0573 -5.86911 6.09726
head 14.1979 -2.80955 3.37859
rclavicle 2.68484e-014 -5.1684e-015
rhumerus -29.6517 -12.7289 -82.5471
rradius 35.8815
rwrist 1.81099
rhand -17.3917 11.536
rfingers 7.12502
rthumb 8.85733 -18.2581
lclavicle 2.68484e-014 -5.1684e-015
lhumerus -37.3171 9.31718 79.0763
lradius 24.7757
lwrist -12.7623
lhand -15.6526 27.4417
lfingers 7.12502
lthumb 10.5353 57.1576
rfemur 9.66441 1.05896 26.3769
rtibia 39.0913
rfoot 4.09061 -3.86853
rtoes 0.1907
lfemur -17.4323 -2.16952 -19.2078
ltibia 22.5062
lfoot -0.617121 -8.26353
ltoes 2.61692
418
root 11.7974 17.8911 13.0354 221.32 86.7379 223.68
lowerback 10.3357 2.56291 1.99571
upperback -0.304161 3.6339 -0.591626
thorax -5.95218 1.72213 -2.29358
lowerneck -20.076 -5.70746 -11.3244
upperneck 30.0511 -5.72741 5.9947
head 14.1967 -2.76433 3.36397
rclavicle 2.3966e-014 5.96354e-015
rhumerus -29.8591 -12.5644 -82.5876
rradius 35.567
rwrist 1.79051
rhand -17.1822 11.5631
rfingers 7.12502
rthumb 9.05953 -18.2224
lclavicle 2.3966e-014 5.96354e-015
lhumerus -37.2052 9.49201 79.2076
lradius 24.8173
lwrist -13.0181
lhand -15.2387 27.1279
lfingers 7.12502
lthumb 10.9345 56.8232
rfemur 8.45114 0.691185 25.8878
rtibia 41.7451
rfoot 6.12975 -3.6038
rtoes 2.12331
lfemur -16.5218 -2.04305 -19.5075
ltibia 22.3557
lfoot -0.916515 -8.35637
ltoes 3.17397
419
root 11.9517 17.9216 13.0034 220.268 87.0078 222.582
lowerback 10.2375 2.59742 1.86254
upperback -0.306487 3.66069 -0.60702
thorax -5.9051 1.73999 -2.23356
lowerneck -20.043 -5.6492 -11.3614
upperneck 29.9383 -5.62181 5.96059
head 14.1285 -2.72873 3.37291
rclavicle -1.31695e-014 -3.18055e-015
rhumerus -30.1028 -12.2219 -82.6402
rradius 35.3028
rwrist 1.57501
rhand -17.0274 11.4092
rfingers 7.12502
rthumb 9.20889 -18.3697
lclavicle -1.31695e-014 -3.18055e-015
lhumerus -37.0677 9.18088 79.5729
lradius 24.9851
lwrist -12.6791
lhand -15.7474 26.9555
lfingers 7.12502
lthumb 10.4439 56.6761
rfemur 6.92534 0.318736 25.3106
rtibia 44.4205
rfoot 8.1969 -3.54268
rtoes 5.40797
lfemur -15.7658 -2.32342 -19.7906
ltibia 22.0289
lfoot -0.990274 -8.02321
ltoes 5.67773
420
root 12.1072 17.9455 12.9759 220.532 87.2281 222.733
lowerback 9.97995 2.66551 1.75387
upperback -0.281746 3.73593 -0.562043
thorax -5.74011 1.78429 -2.12082
lowerneck -20.104 -5.63389 -11.5104
upperneck 29.8917 -5.54408 5.97424
head 14.1197 -2.7106 3.4161
rclavicle 3.48619e-014 -3.97569e-016
rhumerus -30.3102 -11.9848 -82.592
rradius 35.0192
rwrist 1.7425
rhand -16.7968 11.4173
rfingers 7.12502
rthumb 9.43145 -18.3516
lclavicle 3.48619e-014 -3.97569e-016
lhumerus -36.8508 8.61325 80.1385
lradius 25.2343
lwrist -12.139
lhand -16.4233 26.9704
lfingers 7.12502
lthumb 9.79182 56.7227
rfemur 5.30645 0.0237134 24.9126
rtibia 47.0896
rfoot 10.1262 -3.66359
rtoes 9.07352
lfemur -14.9645 -2.5296 -20.0169
ltibia 21.4348
lfoot -1.1264 -7.70014
ltoes 6.43961
421
root 12.2607 17.9614 12.9527 209.141 87.7061 211.585
lowerback 10.0906 2.70809 1.07048
upperback -0.144293 3.70916 -0.664573
thorax -5.69504 1.79209 -1.84368
lowerneck -20.179 -5.59459 -11.513
upperneck 29.8667 -5.44596 5.87934
head 14.111 -2.68161 3.39403
rclavicle -2.28975e-014 -4.37326e-015
rhumerus -30.3736 -11.7117 -82.6344
rradius 34.6147
rwrist 2.18849
rhand -16.5068 11.5874
rfingers 7.12502
rthumb 9.71122 -18.1687
lclavicle -2.28975e-014 -4.37326e-015
lhumerus -36.6526 8.14714 80.6232
lradius 25.5609
lwrist -11.9121
lhand -16.6187 27.2878
lfingers 7.12502
lthumb 9.60326 57.0489
rfemur 4.06852 -0.379307 23.9066
rtibia 49.7375
rfoot 11.8598 -3.64118
rtoes 11.8676
lfemur -13.7038 -2.54118 -20.896
ltibia 20.6792
lfoot -1.29233 -7.54242
ltoes 5.48732
422
root 12.4064 17.9755 12.9208 180.007 88.0902 182.657
lowerback 10.2738 2.72374 0.130354
upperback -0.0350924 3.60567 -0.966639
thorax -5.72517 1.76547 -1.6252
lowerneck -20.2009 -5.52631 -11.5024
upperneck 29.8055 -5.348 5.87611
head 14.0771 -2.63885 3.40717
rclavicle 4.28381e-014 -1.98785e-015
rhumerus -30.4725 -11.2156 -82.8439
rradius 34.3452
rwrist 2.50772
rhand -16.2363 11.6064
rfingers 7.12502
rthumb 9.97222 -18.1374
lclavicle 4.28381e-014 -1.98785e-015
lhumerus -36.422 7.40721 81.0514
lradius 25.8572
lwrist -11.4994
lhand -16.436 27.3378
lfingers 7.12502
lthumb 9.7795 57.0907
rfemur 2.7577 -0.826141 22.3544
rtibia 52.3448
rfoot 13.3399 -3.6433
rtoes 13.4938
lfemur -12.4911 -2.45056 -22.301
ltibia 19.8801
lfoot -1.41726 -7.45793
ltoes 4.29185
423
root 12.554 17.9887 12.891 160.605 88.0309 163.322
lowerback 10.302 2.71126 -0.439255
upperback -0.0166651 3.51603 -1.08302
thorax -5.75094 1.73645 -1.41614
lowerneck -20.155 -5.44541 -11.5152
upperneck 29.784 -5.18343 5.74301
head 14.0361 -2.58796 3.38518
rclavicle -4.67517e-014 1.90833e-014
rhumerus -30.6284 -10.7142 -82.9468
rradius 34.0728
rwrist 2.89371
rhand -15.9023 11.4836
rfingers 7.12502
rthumb 10.2944 -18.2445
lclavicle -4.67517e-014 1.90833e-014
lhumerus -36.2691 6.77465 81.4383
lradius 26.1787
lwrist -10.9458
lhand -15.5946 26.8394
lfingers 7.12502
lthumb 10.5912 56.5525
rfemur 1.31018 -1.32885 21.35
rtibia 54.8442
rfoot 14.062 -4.03262
rtoes 14.9284
lfemur -11.4074 -2.1989 -23.1896
ltibia 19.0006
lfoot -1.57322 -7.55142
ltoes 3.12921
424
root 12.7045 17.9958 12.8692 151.532 87.8882 154.461
lowerback 10.392 2.68797 -0.810738
upperback 0.076883 3.44186 -1.09276
thorax -5.72575 1.7114 -1.20929
lowerneck -20.2178 -5.37996 -11.3498
upperneck 29.8088 -5.05498 5.49144
head 14.0324 -2.54784 3.2777
rclavicle -5.92751e-014 8.34896e-015
rhumerus -30.666 -10.4692 -83.0024
rradius 33.6284
rwrist 3.58591
rhand -15.5425 11.6426
rfingers 7.12502
rthumb 10.6415 -18.068
lclavicle -5.92751e-014 8.34896e-015
lhumerus -36.0415 6.6162 81.681
lradius 26.4725
lwrist -10.7063
lhand -14.9266 25.8642
lfingers 7.12502
lthumb 11.2355 55.5433
rfemur 0.0758071 -1.92775 20.6935
rtibia 57.1886
rfoot 13.7393 -4.52921
rtoes 16.1419
lfemur -10.1952 -2.09945 -23.7088
ltibia 18.1618
lfoot -1.71202 -7.5334
ltoes 2.81015
425
root 12.8504 17.9981 12.8476 140.844 87.6194 144.054
lowerback 10.606 2.69704 -1.2925
upperback 0.173475 3.39175 -1.17581
thorax -5.76798 1.70014 -1.02755
lowerneck -20.2188 -5.34393 -11.1746
upperneck 29.7761 -5.03484 5.39535
head 14.006 -2.53218 3.21145
rclavicle -7.9079e-015 1.05356e-014
rhumerus -30.751 -10.2874 -83.0407
rradius 33.2541
rwrist 4.25993
rhand -15.1089 11.9266
rfingers 7.12502
rthumb 11.0597 -17.762
lclavicle -7.9079e-015 1.05356e-014
lhumerus -35.8371 6.17775 82.0299
lradius 26.6206
lwrist -10.6124
lhand -16.0656 25.4124
lfingers 7.12502
lthumb 10.1368 55.1482
rfemur -1.04614 -2.50809 19.8885
rtibia 59.356
rfoot 12.8169 -4.94832
rtoes 16.3725
lfemur -9.05237 -1.96713 -24.4019
ltibia 17.5982
lfoot -2.02125 -7.54903
ltoes 2.08696
